ffmpeg version 4.2.7-0ubuntu0.1 Copyright (c) 2000-2022 the FFmpeg developers
  built with gcc 9 (Ubuntu 9.4.0-1ubuntu1~20.04.1)
  configuration: --prefix=/usr --extra-version=0ubuntu0.1 --toolchain=hardened --libdir=/usr/lib/x86_64-linux-gnu --incdir=/usr/include/x86_64-linux-gnu --arch=amd64 --enable-gpl --disable-stripping --enable-avresample --disable-filter=resample --enable-avisynth --enable-gnutls --enable-ladspa --enable-libaom --enable-libass --enable-libbluray --enable-libbs2b --enable-libcaca --enable-libcdio --enable-libcodec2 --enable-libflite --enable-libfontconfig --enable-libfreetype --enable-libfribidi --enable-libgme --enable-libgsm --enable-libjack --enable-libmp3lame --enable-libmysofa --enable-libopenjpeg --enable-libopenmpt --enable-libopus --enable-libpulse --enable-librsvg --enable-librubberband --enable-libshine --enable-libsnappy --enable-libsoxr --enable-libspeex --enable-libssh --enable-libtheora --enable-libtwolame --enable-libvidstab --enable-libvorbis --enable-libvpx --enable-libwavpack --enable-libwebp --enable-libx265 --enable-libxml2 --enable-libxvid --enable-libzmq --enable-libzvbi --enable-lv2 --enable-omx --enable-openal --enable-opencl --enable-opengl --enable-sdl2 --enable-libdc1394 --enable-libdrm --enable-libiec61883 --enable-nvenc --enable-chromaprint --enable-frei0r --enable-libx264 --enable-shared
  libavutil      56. 31.100 / 56. 31.100
  libavcodec     58. 54.100 / 58. 54.100
  libavformat    58. 29.100 / 58. 29.100
  libavdevice    58.  8.100 / 58.  8.100
  libavfilter     7. 57.100 /  7. 57.100
  libavresample   4.  0.  0 /  4.  0.  0
  libswscale      5.  5.100 /  5.  5.100
  libswresample   3.  5.100 /  3.  5.100
  libpostproc    55.  5.100 / 55.  5.100
Routing option strict to both codec and muxer layer
[h264 @ 0x55d65121d880] Reinit context to 848x480, pix_fmt: yuv420p
Input #0, mov,mp4,m4a,3gp,3g2,mj2, from '/var/www/html/project/media/video/original/VID-20251217-WA0055.mp4':
  Metadata:
    major_brand     : mp42
    minor_version   : 0
    compatible_brands: mp42isom
  Duration: 00:00:11.33, start: 0.000000, bitrate: 1675 kb/s
    Stream #0:0(und): Video: h264 (High), 1 reference frame (avc1 / 0x31637661), yuv420p(tv, bt709, left), 848x480, 1522 kb/s, 29.92 fps, 29.97 tbr, 90k tbn, 180k tbc (default)
    Stream #0:1(und): Audio: aac (LC) (mp4a / 0x6134706D), 48000 Hz, stereo, fltp, 256 kb/s (default)
Input #1, png_pipe, from '/var/www/html/project/static/images/templates/logo.png':
  Duration: N/A, bitrate: N/A
    Stream #1:0: Video: png, 1 reference frame, rgba(pc), 1920x1080 [SAR 2835:2835 DAR 16:9], 25 tbr, 25 tbn, 25 tbc
[Parsed_scale_0 @ 0x55d651307740] w:1280 h:720 flags:'bilinear' interl:0
[Parsed_scale_2 @ 0x55d651258200] w:1280 h:720 flags:'bilinear' interl:0
Stream mapping:
  Stream #0:0 (h264) -> scale (graph 0)
  Stream #1:0 (png) -> scale (graph 0)
  overlay (graph 0) -> Stream #0:0 (libx264)
  Stream #0:1 -> #0:1 (aac (native) -> aac (native))
Press [q] to stop, [?] for help
[h264 @ 0x55d65139bd80] Reinit context to 848x480, pix_fmt: yuv420p
[Parsed_scale_0 @ 0x55d651872240] w:1280 h:720 flags:'bilinear' interl:0
[Parsed_scale_2 @ 0x55d651872840] w:1280 h:720 flags:'bilinear' interl:0
[graph 0 input from stream 0:0 @ 0x55d651874080] w:848 h:480 pixfmt:yuv420p tb:1/90000 fr:30000/1001 sar:0/1 sws_param:flags=2
[graph 0 input from stream 1:0 @ 0x55d651875140] w:1920 h:1080 pixfmt:rgba tb:1/25 fr:25/1 sar:2835/2835 sws_param:flags=2
[Parsed_scale_0 @ 0x55d651872240] w:848 h:480 fmt:yuv420p sar:0/1 -> w:1280 h:720 fmt:yuv420p sar:0/1 flags:0x2
[Parsed_setsar_1 @ 0x55d65139c7c0] w:1280 h:720 sar:0/1 dar:16/9 -> sar:1/1 dar:16/9
[Parsed_scale_2 @ 0x55d651872840] w:1920 h:1080 fmt:rgba sar:2835/2835 -> w:1280 h:720 fmt:yuva420p sar:1/1 flags:0x2
[Parsed_setsar_3 @ 0x55d651872a40] w:1280 h:720 sar:1/1 dar:16/9 -> sar:1/1 dar:16/9
[Parsed_overlay_4 @ 0x55d651873380] main w:1280 h:720 fmt:yuv420p overlay w:1280 h:720 fmt:yuva420p
[Parsed_overlay_4 @ 0x55d651873380] [framesync @ 0x55d6518734a8] Selected 1/90000 time base
[Parsed_overlay_4 @ 0x55d651873380] [framesync @ 0x55d6518734a8] Sync level 2
[libx264 @ 0x55d65124cd00] using SAR=1/1
[libx264 @ 0x55d65124cd00] using cpu capabilities: MMX2 SSE2Fast SSSE3 SSE4.2 AVX FMA3 BMI2 AVX2
[libx264 @ 0x55d65124cd00] profile High, level 3.1
[libx264 @ 0x55d65124cd00] 264 - core 155 r2917 0a84d98 - H.264/MPEG-4 AVC codec - Copyleft 2003-2018 - http://www.videolan.org/x264.html - options: cabac=1 ref=1 deblock=1:0:0 analyse=0x3:0x113 me=hex subme=2 psy=1 psy_rd=1.00:0.00 mixed_ref=0 me_range=16 chroma_me=1 trellis=0 8x8dct=1 cqm=0 deadzone=21,11 fast_pskip=1 chroma_qp_offset=0 threads=22 lookahead_threads=5 sliced_threads=0 nr=0 decimate=1 interlaced=0 bluray_compat=0 constrained_intra=0 bframes=3 b_pyramid=2 b_adapt=1 b_bias=0 direct=1 weightb=1 open_gop=0 weightp=1 keyint=250 keyint_min=25 scenecut=40 intra_refresh=0 rc_lookahead=10 rc=crf mbtree=1 crf=18.0 qcomp=0.60 qpmin=0 qpmax=69 qpstep=4 ip_ratio=1.40 aq=1:1.00
[graph_1_in_0_1 @ 0x55d6541994c0] tb:1/48000 samplefmt:fltp samplerate:48000 chlayout:0x3
Output #0, mp4, to '/var/www/html/project/media/video/watermarks/VID-20251217-WA0055.mp4':
  Metadata:
    major_brand     : mp42
    minor_version   : 0
    compatible_brands: mp42isom
    encoder         : Lavf58.29.100
    Stream #0:0: Video: h264 (libx264), 1 reference frame (avc1 / 0x31637661), yuv420p(progressive), 1280x720 [SAR 1:1 DAR 16:9], q=-1--1, 29.97 fps, 30k tbn, 29.97 tbc (default)
    Metadata:
      encoder         : Lavc58.54.100 libx264
    Side data:
      cpb: bitrate max/min/avg: 0/0/0 buffer size: 0 vbv_delay: -1
    Stream #0:1(und): Audio: aac (LC) (mp4a / 0x6134706D), 48000 Hz, stereo, fltp, delay 1024, 128 kb/s (default)
    Metadata:
      encoder         : Lavc58.54.100 aac
[Parsed_overlay_4 @ 0x55d651873380] [framesync @ 0x55d6518734a8] Sync level 0
No more output streams to write to, finishing.
frame=  315 fps=156 q=-1.0 Lsize=    7431kB time=00:00:11.32 bitrate=5373.5kbits/s speed=5.61x    
[AVIOContext @ 0x55d65121bb40] Statistics: 0 seeks, 4 writeouts
video:7240kB audio:178kB subtitle:0kB other streams:0kB global headers:0kB muxing overhead: 0.171554%
Input file #0 (/var/www/html/project/media/video/original/VID-20251217-WA0055.mp4):
  Input stream #0:0 (video): 315 packets read (2004297 bytes); 315 frames decoded; 
  Input stream #0:1 (audio): 531 packets read (362638 bytes); 531 frames decoded (543744 samples); 
  Total: 846 packets (2366935 bytes) demuxed
Input file #1 (/var/www/html/project/static/images/templates/logo.png):
  Input stream #1:0 (video): 1 packets read (111578 bytes); 1 frames decoded; 
  Total: 1 packets (111578 bytes) demuxed
Output file #0 (/var/www/html/project/media/video/watermarks/VID-20251217-WA0055.mp4):
  Output stream #0:0 (video): 315 frames encoded; 315 packets muxed (7413929 bytes); 
  Output stream #0:1 (audio): 531 frames encoded (543744 samples); 532 packets muxed (181916 bytes); 
  Total: 847 packets (7595845 bytes) muxed
[AVIOContext @ 0x55d6512583c0] Statistics: 2 seeks, 32 writeouts
[libx264 @ 0x55d65124cd00] frame I:2     Avg QP:17.50  size:148412
[libx264 @ 0x55d65124cd00] frame P:87    Avg QP:19.92  size: 51512
[libx264 @ 0x55d65124cd00] frame B:226   Avg QP:23.80  size: 11659
[libx264 @ 0x55d65124cd00] consecutive B-frames:  4.1%  0.0%  1.9% 94.0%
[libx264 @ 0x55d65124cd00] mb I  I16..4:  5.8% 12.0% 82.2%
[libx264 @ 0x55d65124cd00] mb P  I16..4:  2.6%  7.7%  5.8%  P16..4: 36.4% 22.6% 19.7%  0.0%  0.0%    skip: 5.2%
[libx264 @ 0x55d65124cd00] mb B  I16..4:  0.4%  0.9%  0.3%  B16..8: 27.8% 14.7%  2.9%  direct:12.2%  skip:40.8%  L0:31.1% L1:41.8% BI:27.0%
[libx264 @ 0x55d65124cd00] 8x8 transform intra:45.6% inter:27.7%
[libx264 @ 0x55d65124cd00] coded y,uvDC,uvAC intra: 71.0% 52.5% 13.7% inter: 26.7% 8.8% 0.3%
[libx264 @ 0x55d65124cd00] i16 v,h,dc,p: 43% 30% 13% 14%
[libx264 @ 0x55d65124cd00] i8 v,h,dc,ddl,ddr,vr,hd,vl,hu: 18% 27% 16%  5%  6%  5%  7%  5%  9%
[libx264 @ 0x55d65124cd00] i4 v,h,dc,ddl,ddr,vr,hd,vl,hu: 16% 21% 12%  7% 10%  8% 10%  6% 10%
[libx264 @ 0x55d65124cd00] i8c dc,h,v,p: 55% 23% 16%  6%
[libx264 @ 0x55d65124cd00] Weighted P-Frames: Y:13.8% UV:2.3%
[libx264 @ 0x55d65124cd00] kb/s:5624.68
[aac @ 0x55d651245f40] Qavg: 890.936
[AVIOContext @ 0x55d651224ac0] Statistics: 2372899 bytes read, 0 seeks
[AVIOContext @ 0x55d651222f80] Statistics: 111578 bytes read, 0 seeks
